<svg xmlns="http://www.w3.org/2000/svg" width="900" height="900" viewBox="0 0 900 900">
  <defs>
    <linearGradient id="g0" x1="0" y1="0" x2="0" y2="1">
      <stop offset="0" stop-color="#2c5cff"/>
      <stop offset="0.55" stop-color="#132a63"/>
      <stop offset="1" stop-color="#050a18"/>
    </linearGradient>
    <radialGradient id="glow" cx="0.2" cy="0.25" r="0.9">
      <stop offset="0" stop-color="#6df2ff" stop-opacity="0.35"/>
      <stop offset="0.45" stop-color="#6df2ff" stop-opacity="0.10"/>
      <stop offset="1" stop-color="#6df2ff" stop-opacity="0"/>
    </radialGradient>
    <filter id="noise" x="-20%" y="-20%" width="140%" height="140%">
      <feTurbulence type="fractalNoise" baseFrequency="0.9" numOctaves="3" stitchTiles="stitch" />
      <feColorMatrix type="matrix" values="
        1 0 0 0 0
        0 1 0 0 0
        0 0 1 0 0
        0 0 0 .12 0" />
    </filter>
    <filter id="soft" x="-20%" y="-20%" width="140%" height="140%">
      <feGaussianBlur stdDeviation="10" />
    </filter>
  </defs>

  <rect width="900" height="900" fill="url(#g0)"/>
  <rect width="900" height="900" fill="url(#glow)"/>
  <rect width="900" height="900" filter="url(#noise)" opacity=".9"/>

  <!-- 水面波纹 -->
  <g opacity=".55" stroke="#a2e7ff" stroke-opacity=".25" fill="none">
    <path d="M-40 130 C 120 70, 280 190, 440 130 S 760 70, 940 130" stroke-width="18"/>
    <path d="M-60 210 C 110 150, 290 270, 460 210 S 790 150, 960 210" stroke-width="12"/>
    <path d="M-40 310 C 120 250, 300 370, 480 310 S 760 250, 940 310" stroke-width="10"/>
  </g>

  <!-- 抽象“鱼”轮廓（避免任何品牌/IP） -->
  <g opacity=".28" fill="#0b1f4a" filter="url(#soft)">
    <path d="M760 160c-82 8-150 42-198 88-54 51-86 114-107 172-18 52-40 86-78 106 46 10 84 2 114-18 48-33 72-86 86-136 15-52 33-114 80-168 40-46 96-82 167-99l-64 55z"/>
  </g>

  <g opacity=".35" fill="#1fe0ff">
    <circle cx="640" cy="360" r="6"/>
    <circle cx="670" cy="380" r="4"/>
    <circle cx="610" cy="395" r="3"/>
  </g>
</svg>

